<?xml version="1.0" encoding="utf-8" ?>
<svg baseProfile="full" height="512" version="1.1" viewBox="-0.5 -0.5 1.0 1.0" width="512" xmlns="http://www.w3.org/2000/svg" xmlns:ev="http://www.w3.org/2001/xml-events" xmlns:xlink="http://www.w3.org/1999/xlink"><defs><clipPath id="id1"><rect height="1.0" width="1.0" x="-0.5" y="-0.5" /></clipPath></defs><g clip-path="url(#id1)" fill="#FF6B6B" fill-opacity="0.8" stroke="#D63031" stroke-width="0.01"><polygon points="0.0,-16.7752134128 0.0,0.0 -14.5277609694,8.3876067064" /><polygon points="0.0,0.0 18.320784255,-10.5775097214 14.5277609694,8.3876067064" /><polygon points="0.0,0.0 0.0,-16.7752134128 18.320784255,-10.5775097214" /><polygon points="0.0,0.0 14.5277609694,8.3876067064 0.0,21.1550194427" /><polygon points="0.0,0.0 0.0,21.1550194427 -14.5277609694,8.3876067064" /><polygon points="-14.5277609694,8.3876067064 0.0,21.1550194427 0.0,0.0" /><polygon points="-14.5277609694,8.3876067064 0.0,0.0 -18.320784255,-10.5775097214" /><polygon points="14.5277609694,8.3876067064 18.320784255,-10.5775097214 0.0,0.0" /><polygon points="14.5277609694,8.3876067064 0.0,0.0 0.0,21.1550194427" /><polygon points="18.320784255,-10.5775097214 -18.320784255,-10.5775097214 0.0,0.0" /></g><g clip-path="url(#id1)" fill="#4ECDC4" fill-opacity="0.8" stroke="#00B894" stroke-width="0.01"><polygon points="0.0,0.0 18.320784255,-10.5775097214 14.5277609694,8.3876067064" /><polygon points="0.0,0.0 0.0,-16.7752134128 18.320784255,-10.5775097214" /><polygon points="0.0,0.0 14.5277609694,8.3876067064 -9.1603921275,5.2887548607" /><polygon points="0.0,-16.7752134128 0.0,0.0 -9.1603921275,5.2887548607" /></g><g clip-path="url(#id1)" fill="#FDCB6E" fill-opacity="0.8" stroke="#E17055" stroke-width="0.01"><polygon points="0.0,0.0 -4.3858404781,1.1472864217 -0.7197393784,2.1422699568" /><polygon points="0.0,0.0 -2.3494065175,-1.3564304853 -4.3858404781,1.1472864217" /><polygon points="0.0,0.0 -0.7197393784,2.1422699568 1.7789752991,7.3492195932" /><polygon points="0.0,0.0 -4.8239574433,-6.8321191373 -2.3494065175,-1.3564304853" /><polygon points="0.0,0.0 1.7789752991,7.3492195932 1.9817396332,2.8067167545" /><polygon points="0.0,0.0 -0.768242571,-3.1737275082 -4.8239574433,-6.8321191373" /><polygon points="0.0,0.0 1.9817396332,2.8067167545 6.6531615591,3.8412046171" /><polygon points="0.0,0.0 2.1079181023,-6.2741185573 -0.768242571,-3.1737275082" /><polygon points="0.0,0.0 6.6531615591,3.8412046171 2.0665453961,-0.5405851727" /><polygon points="0.0,0.0 2.0665453961,-0.5405851727 2.1079181023,-6.2741185573" /></g></svg>