<?xml version="1.0" encoding="utf-8" ?>
<svg baseProfile="full" height="512" version="1.1" viewBox="-0.5 -0.5 1.0 1.0" width="512" xmlns="http://www.w3.org/2000/svg" xmlns:ev="http://www.w3.org/2001/xml-events" xmlns:xlink="http://www.w3.org/1999/xlink"><defs><clipPath id="id1"><rect height="1.0" width="1.0" x="-0.5" y="-0.5" /></clipPath></defs><g clip-path="url(#id1)" fill="#FF6B6B" fill-opacity="0.8" stroke="#2D3436" stroke-width="0.01"><polygon points="0.0,-16.7752134128 0.0,0.0 -14.5277609694,8.3876067064" /><polygon points="0.0,0.0 18.320784255,-10.5775097214 14.5277609694,8.3876067064" /><polygon points="0.0,0.0 0.0,-16.7752134128 18.320784255,-10.5775097214" /><polygon points="0.0,0.0 14.5277609694,8.3876067064 0.0,21.1550194427" /><polygon points="0.0,0.0 0.0,21.1550194427 -14.5277609694,8.3876067064" /><polygon points="-14.5277609694,8.3876067064 0.0,21.1550194427 0.0,0.0" /><polygon points="-14.5277609694,8.3876067064 0.0,0.0 -18.320784255,-10.5775097214" /><polygon points="14.5277609694,8.3876067064 18.320784255,-10.5775097214 0.0,0.0" /><polygon points="14.5277609694,8.3876067064 0.0,0.0 0.0,21.1550194427" /><polygon points="18.320784255,-10.5775097214 -18.320784255,-10.5775097214 0.0,0.0" /></g><g clip-path="url(#id1)" fill="#4ECDC4" fill-opacity="0.8" stroke="#2D3436" stroke-width="0.01"><polygon points="0.0,-12.1190061419 0.0,0.0 -10.4953671875,6.059503071" /><polygon points="0.0,0.0 10.4953671875,6.059503071 0.0,14.2504216116" /><polygon points="0.0,0.0 12.3412271303,-7.1252108058 10.4953671875,6.059503071" /><polygon points="0.0,0.0 0.0,-12.1190061419 12.3412271303,-7.1252108058" /><polygon points="0.0,0.0 0.0,14.2504216116 -10.4953671875,6.059503071" /><polygon points="10.4953671875,6.059503071 0.0,0.0 0.0,14.2504216116" /><polygon points="-10.4953671875,6.059503071 0.0,14.2504216116 0.0,0.0" /><polygon points="-10.4953671875,6.059503071 0.0,0.0 -12.3412271303,-7.1252108058" /><polygon points="10.4953671875,6.059503071 12.3412271303,-7.1252108058 0.0,0.0" /><polygon points="12.3412271303,-7.1252108058 -12.3412271303,-7.1252108058 0.0,0.0" /></g><g clip-path="url(#id1)" fill="#FDCB6E" fill-opacity="0.8" stroke="#2D3436" stroke-width="0.01"><polygon points="0.0,-19.7219449907 0.0,0.0 -17.0797053739,9.8609724953" /><polygon points="0.0,0.0 22.5743296441,-13.0332952968 17.0797053739,9.8609724953" /><polygon points="0.0,0.0 0.0,-19.7219449907 22.5743296441,-13.0332952968" /><polygon points="0.0,0.0 17.0797053739,9.8609724953 0.0,26.0665905935" /><polygon points="0.0,0.0 0.0,26.0665905935 -17.0797053739,9.8609724953" /><polygon points="17.0797053739,9.8609724953 22.5743296441,-13.0332952968 0.0,0.0" /><polygon points="-17.0797053739,9.8609724953 0.0,0.0 -22.5743296441,-13.0332952968" /><polygon points="17.0797053739,9.8609724953 0.0,0.0 0.0,26.0665905935" /><polygon points="-17.0797053739,9.8609724953 0.0,26.0665905935 0.0,0.0" /><polygon points="22.5743296441,-13.0332952968 -22.5743296441,-13.0332952968 0.0,0.0" /></g><g clip-path="url(#id1)" fill="#FDCB6E" fill-opacity="0.8" stroke="#2D3436" stroke-width="0.01"><polygon points="0.0,-23.9245233195 0.0,0.0 -20.7192449681,11.9622616597" /><polygon points="0.0,0.0 29.4001848588,-16.9742046424 20.7192449681,11.9622616597" /><polygon points="0.0,0.0 0.0,-23.9245233195 29.4001848588,-16.9742046424" /><polygon points="0.0,0.0 20.7192449681,11.9622616597 0.0,33.9484092849" /><polygon points="0.0,0.0 0.0,33.9484092849 -20.7192449681,11.9622616597" /><polygon points="20.7192449681,11.9622616597 29.4001848588,-16.9742046424 0.0,0.0" /><polygon points="-20.7192449681,11.9622616597 0.0,33.9484092849 0.0,0.0" /><polygon points="-20.7192449681,11.9622616597 0.0,0.0 -29.4001848588,-16.9742046424" /><polygon points="20.7192449681,11.9622616597 0.0,0.0 0.0,33.9484092849" /><polygon points="29.4001848588,-16.9742046424 -29.4001848588,-16.9742046424 0.0,0.0" /></g><g clip-path="url(#id1)" fill="#FDCB6E" fill-opacity="0.8" stroke="#2D3436" stroke-width="0.01"><polygon points="5.1234046334,11.039402722 23.1137284214,-3.5757062307 0.0,0.0" /><polygon points="-12.1221055166,-1.0827027946 -8.4602117784,21.8049291045 0.0,0.0" /><polygon points="23.1137284214,-3.5757062307 -7.0423740637,-15.1742071866 0.0,0.0" /></g><g clip-path="url(#id1)" fill="#FDCB6E" fill-opacity="0.8" stroke="#2D3436" stroke-width="0.01"><polygon points="-9.8503152658,-5.6870821703 -11.4588650129,19.8473363995 0.0,0.0" /><polygon points="0.0,11.3741643406 22.9177300259,-0.0 0.0,0.0" /><polygon points="22.9177300259,-0.0 -0.0,-15.8139677134 0.0,0.0" /></g><g clip-path="url(#id1)" fill="#FDCB6E" fill-opacity="0.8" stroke="#2D3436" stroke-width="0.01"><polygon points="-6.9987008831,-9.9566999274 -13.4650847136,16.7507934265 0.0,0.0" /><polygon points="-5.1234046334,11.039402722 21.2391549977,3.2857087129 0.0,0.0" /><polygon points="21.2391549977,3.2857087129 7.0423740637,-15.1742071866 0.0,0.0" /></g><g clip-path="url(#id1)" fill="#FF6B6B" fill-opacity="0.8" stroke="#2D3436" stroke-width="0.01"><polygon points="0.0,0.0 18.320784255,-10.5775097214 14.5277609694,8.3876067064" /><polygon points="0.0,0.0 0.0,-16.7752134128 18.320784255,-10.5775097214" /><polygon points="0.0,0.0 14.5277609694,8.3876067064 -9.1603921275,5.2887548607" /><polygon points="0.0,-16.7752134128 0.0,0.0 -9.1603921275,5.2887548607" /></g><g clip-path="url(#id1)" fill="#4ECDC4" fill-opacity="0.8" stroke="#2D3436" stroke-width="0.01"><polygon points="0.0,0.0 12.3412271303,-7.1252108058 10.4953671875,6.059503071" /><polygon points="0.0,0.0 0.0,-12.1190061419 12.3412271303,-7.1252108058" /><polygon points="0.0,0.0 10.4953671875,6.059503071 -6.1706135651,3.5626054029" /><polygon points="0.0,-12.1190061419 0.0,0.0 -6.1706135651,3.5626054029" /></g><g clip-path="url(#id1)" fill="#FDCB6E" fill-opacity="0.8" stroke="#2D3436" stroke-width="0.01"><polygon points="0.0,0.0 22.5743296441,-13.0332952968 17.0797053739,9.8609724953" /><polygon points="0.0,0.0 0.0,-19.7219449907 22.5743296441,-13.0332952968" /><polygon points="0.0,0.0 17.0797053739,9.8609724953 -11.287164822,6.5166476484" /><polygon points="0.0,-19.7219449907 0.0,0.0 -11.287164822,6.5166476484" /></g><g clip-path="url(#id1)" fill="#FDCB6E" fill-opacity="0.8" stroke="#2D3436" stroke-width="0.01"><polygon points="0.0,0.0 29.4001848588,-16.9742046424 20.7192449681,11.9622616597" /><polygon points="0.0,0.0 0.0,-23.9245233195 29.4001848588,-16.9742046424" /><polygon points="0.0,0.0 20.7192449681,11.9622616597 -14.7000924294,8.4871023212" /><polygon points="0.0,-23.9245233195 0.0,0.0 -14.7000924294,8.4871023212" /></g><g clip-path="url(#id1)" fill="#FDCB6E" fill-opacity="0.8" stroke="#2D3436" stroke-width="0.01" /><g clip-path="url(#id1)" fill="#FDCB6E" fill-opacity="0.8" stroke="#2D3436" stroke-width="0.01" /><g clip-path="url(#id1)" fill="#FDCB6E" fill-opacity="0.8" stroke="#2D3436" stroke-width="0.01" /></svg>