<?xml version="1.0" encoding="utf-8" ?>
<svg baseProfile="full" height="512" version="1.1" viewBox="-0.5 -0.5 1.0 1.0" width="512" xmlns="http://www.w3.org/2000/svg" xmlns:ev="http://www.w3.org/2001/xml-events" xmlns:xlink="http://www.w3.org/1999/xlink"><defs><clipPath id="id3"><rect height="1.0" width="1.0" x="-0.5" y="-0.5" /></clipPath></defs><g clip-path="url(#id3)" fill="#FF6B6B" fill-opacity="0.8" stroke="#D63031" stroke-width="0.01" /><g clip-path="url(#id3)" fill="#4ECDC4" fill-opacity="0.8" stroke="#00B894" stroke-width="0.01" /><g clip-path="url(#id3)" fill="#FDCB6E" fill-opacity="0.8" stroke="#E17055" stroke-width="0.01"><polygon points="0.0,-0.0 -2.7714223486,-0.4937958525 -5.3150797499,3.5252690123" /><polygon points="0.0,-0.0 -5.3150797499,3.5252690123 -0.8621891564,2.9195359102" /><polygon points="0.0,-0.0 -5.5556317898,-5.6645571393 -2.7714223486,-0.4937958525" /><polygon points="0.0,-0.0 -0.8621891564,2.9195359102 2.1805953103,8.1609613495" /><polygon points="0.0,-0.0 -0.8886285534,-3.3257260142 -5.5556317898,-5.6645571393" /><polygon points="0.0,-0.0 2.1805953103,8.1609613495 2.3529074472,2.3990394659" /><polygon points="0.0,-0.0 2.3580364678,-7.9847593282 -0.8886285534,-3.3257260142" /><polygon points="0.0,-0.0 2.3988886997,-1.5910822805 2.3580364678,-7.9847593282" /><polygon points="0.0,-0.0 2.3529074472,2.3990394659 7.7740768339,1.3851396196" /><polygon points="0.0,-0.0 7.7740768339,1.3851396196 2.3988886997,-1.5910822805" /></g></svg>