<?xml version="1.0" encoding="utf-8" ?>
<svg baseProfile="full" height="512" version="1.1" viewBox="-0.5 -0.5 1.0 1.0" width="512" xmlns="http://www.w3.org/2000/svg" xmlns:ev="http://www.w3.org/2001/xml-events" xmlns:xlink="http://www.w3.org/1999/xlink"><defs><clipPath id="id2"><rect height="1.0" width="1.0" x="-0.5" y="-0.5" /></clipPath></defs><g clip-path="url(#id2)" fill="#FF6B6B" fill-opacity="0.8" stroke="#D63031" stroke-width="0.01" /><g clip-path="url(#id2)" fill="#4ECDC4" fill-opacity="0.8" stroke="#00B894" stroke-width="0.01" /><g clip-path="url(#id2)" fill="#FDCB6E" fill-opacity="0.8" stroke="#E17055" stroke-width="0.01"><polygon points="-0.0,-0.0 -6.0707369479,3.6708862598 -0.968153359,2.8801960853" /><polygon points="-0.0,-0.0 -3.1490827631,-0.402335747 -6.0707369479,3.6708862598" /><polygon points="-0.0,-0.0 -0.968153359,2.8801960853 2.4041047853,7.7663736348" /><polygon points="-0.0,-0.0 -6.4258024112,-5.5275466658 -3.1490827631,-0.402335747" /><polygon points="-0.0,-0.0 2.4041047853,7.7663736348 2.6105485536,2.2456231018" /><polygon points="-0.0,-0.0 -1.0056949788,-3.2488609586 -6.4258024112,-5.5275466658" /><polygon points="-0.0,-0.0 2.6105485536,2.2456231018 8.4565468726,1.0804324177" /><polygon points="-0.0,-0.0 2.6497204527,-7.8827545695 -1.0056949788,-3.2488609586" /><polygon points="-0.0,-0.0 8.4565468726,1.0804324177 2.6740885608,-1.616982647" /><polygon points="-0.0,-0.0 2.6740885608,-1.616982647 2.6497204527,-7.8827545695" /></g></svg>